<svg width="278" height="188" viewBox="0 0 278 188" fill="none" xmlns="http://www.w3.org/2000/svg">
<path d="M109.336 175.864V170.008H107.128V166.648H109.336V162.2H113.592V166.648H116.216V170.008H113.592V176.888C113.592 178.189 113.816 179.107 114.264 179.64H116.216V183H111.672C110.541 181.955 109.859 180.824 109.624 179.608C109.432 178.584 109.336 177.336 109.336 175.864ZM125.424 170.008H123.024C122.704 170.392 122.438 170.925 122.224 171.608C122.032 172.291 121.936 172.952 121.936 173.592H126.512C126.555 172.952 126.47 172.291 126.256 171.608C126.043 170.904 125.766 170.371 125.424 170.008ZM129.776 179.64V183H121.648C120.155 181.997 119.099 180.76 118.48 179.288C117.883 177.795 117.584 176.291 117.584 174.776C117.584 171.277 118.907 168.568 121.552 166.648H126.736C128.166 167.693 129.136 168.803 129.648 169.976C130.16 171.149 130.416 172.333 130.416 173.528C130.416 174.723 130.32 175.747 130.128 176.6H122.16C122.224 177.091 122.406 177.656 122.704 178.296C123.024 178.915 123.366 179.363 123.728 179.64H129.776ZM136.532 174.68C136.532 175.576 136.67 176.493 136.948 177.432C137.225 178.349 137.609 179.085 138.1 179.64H142.9V183H135.891C133.374 180.995 132.116 178.221 132.116 174.68C132.116 171.139 133.46 168.461 136.148 166.648H142.9V170.008H138.1C137.054 171.096 136.532 172.653 136.532 174.68ZM152.488 166.648H155.528C156.467 167.843 157.107 169.037 157.448 170.232C157.79 171.427 157.96 172.92 157.96 174.712V183H153.704V174.392C153.704 172.365 153.427 170.904 152.872 170.008H149.288V183H145.032V160.6H149.288V167.8C149.758 167.373 150.195 167.075 150.6 166.904C151.027 166.733 151.656 166.648 152.488 166.648ZM167.699 166.648H171.091C172.029 167.843 172.669 169.037 173.011 170.232C173.352 171.427 173.523 172.92 173.523 174.712V183H169.267V174.392C169.267 172.365 168.989 170.904 168.435 170.008H164.851V183H160.595V166.648H163.923L164.499 167.8C164.968 167.373 165.405 167.075 165.811 166.904C166.237 166.733 166.867 166.648 167.699 166.648ZM185.885 183H178.909C176.776 181.016 175.709 178.307 175.709 174.872C175.709 173.144 175.944 171.64 176.413 170.36C176.904 169.08 177.672 167.843 178.717 166.648H186.205C187.315 167.928 188.072 169.176 188.477 170.392C188.883 171.587 189.085 173.08 189.085 174.872C189.085 178.307 188.019 181.016 185.885 183ZM181.181 179.64H183.613C184.381 178.147 184.765 176.451 184.765 174.552C184.765 172.653 184.371 171.139 183.581 170.008H181.181C180.413 171.096 180.029 172.643 180.029 174.648C180.029 176.632 180.413 178.296 181.181 179.64ZM195.6 160.6V183H191.376V160.6H195.6ZM208.073 183H201.097C198.963 181.016 197.897 178.307 197.897 174.872C197.897 173.144 198.131 171.64 198.601 170.36C199.091 169.08 199.859 167.843 200.905 166.648H208.393C209.502 167.928 210.259 169.176 210.665 170.392C211.07 171.587 211.273 173.08 211.273 174.872C211.273 178.307 210.206 181.016 208.073 183ZM203.369 179.64H205.801C206.569 178.147 206.953 176.451 206.953 174.552C206.953 172.653 206.558 171.139 205.769 170.008H203.369C202.601 171.096 202.217 172.643 202.217 174.648C202.217 176.632 202.601 178.296 203.369 179.64ZM225.948 166.648V181.304C225.948 182.925 225.734 184.227 225.308 185.208C224.902 186.189 224.081 187.053 222.844 187.8H215.548V184.472H221.02C221.553 184.152 221.82 183.64 221.82 182.936V181.048C221.03 181.709 219.772 182.04 218.044 182.04H215.708C213.98 179.971 213.116 177.571 213.116 174.84C213.116 172.877 213.393 171.277 213.948 170.04C214.502 168.781 215.313 167.651 216.38 166.648H218.748C220.134 166.648 221.233 167.096 222.044 167.992L222.62 166.648H225.948ZM221.692 170.008H218.588C217.82 171.331 217.436 172.856 217.436 174.584C217.436 176.291 217.766 177.699 218.428 178.808H221.692V170.008ZM228.564 183V166.648H232.788V183H228.564ZM228.564 160.6H232.788V164.92H228.564V160.6ZM242.924 170.008H240.524C240.204 170.392 239.938 170.925 239.724 171.608C239.532 172.291 239.436 172.952 239.436 173.592H244.012C244.055 172.952 243.97 172.291 243.756 171.608C243.543 170.904 243.266 170.371 242.924 170.008ZM247.276 179.64V183H239.148C237.655 181.997 236.599 180.76 235.98 179.288C235.383 177.795 235.084 176.291 235.084 174.776C235.084 171.277 236.407 168.568 239.052 166.648H244.236C245.666 167.693 246.636 168.803 247.148 169.976C247.66 171.149 247.916 172.333 247.916 173.528C247.916 174.723 247.82 175.747 247.628 176.6H239.66C239.724 177.091 239.906 177.656 240.204 178.296C240.524 178.915 240.866 179.363 241.228 179.64H247.276ZM251.164 166.648H258.236V170.008H253.244L256.284 174.52C257.649 176.461 258.406 177.795 258.556 178.52C258.641 178.861 258.684 179.213 258.684 179.576C258.684 181.091 258.118 182.232 256.988 183H248.828V179.64H254.684L251.26 174.616C251.11 174.381 250.876 174.051 250.556 173.624C250.257 173.197 250.022 172.856 249.852 172.6C249.681 172.323 249.564 172.12 249.5 171.992C249.436 171.864 249.35 171.704 249.243 171.512C249.137 171.299 249.062 171.117 249.02 170.968C248.934 170.563 248.892 170.232 248.892 169.976C248.892 168.419 249.649 167.309 251.164 166.648Z" fill="url(#paint0_linear_301_2)"/>
<path d="M80.3125 110.25L84.8125 101.75V148H80.3125V110.25ZM89.3125 93L93.8125 84.5V148H89.3125V93ZM98.3125 76L102.812 67.4375V148H98.3125V76ZM68.125 108.125L65.5625 103.438L96.5625 44.5H101.625L68.125 108.125ZM62.9375 98.3125L60.3125 93.5625L86.3125 44.5H91.4375L62.9375 98.3125ZM32.8125 102.25L37.3125 110.75V148H32.8125V102.25ZM23.8125 85.125L28.3125 93.625V148H23.8125V85.125ZM14.8125 68L19.3125 76.5625V148H14.8125V68ZM51.1875 121H46.125L10.3125 53.0625V148H5.8125V44.5H10.875L51.1875 121ZM61.375 121H56.25L16 44.5H21.125L61.375 121ZM107.312 53.0625L71.5 121H66.375L26.1875 44.5H31.25L69 116.25L106.688 44.5H111.812V148H107.312V53.0625ZM225.938 110.25L230.438 101.75V148H225.938V110.25ZM234.938 93L239.438 84.5V148H234.938V93ZM243.938 76L248.438 67.4375V148H243.938V76ZM213.75 108.125L211.188 103.438L242.188 44.5H247.25L213.75 108.125ZM208.562 98.3125L205.938 93.5625L231.938 44.5H237.062L208.562 98.3125ZM178.438 102.25L182.938 110.75V148H178.438V102.25ZM169.438 85.125L173.938 93.625V148H169.438V85.125ZM160.438 68L164.938 76.5625V148H160.438V68ZM196.812 121H191.75L155.938 53.0625V148H151.438V44.5H156.5L196.812 121ZM207 121H201.875L161.625 44.5H166.75L207 121ZM252.938 53.0625L217.125 121H212L171.812 44.5H176.875L214.625 116.25L252.312 44.5H257.438V148H252.938V53.0625Z" fill="#4EB176"/>
<defs>
<linearGradient id="paint0_linear_301_2" x1="154" y1="157" x2="215.78" y2="174.465" gradientUnits="userSpaceOnUse">
<stop stop-color="#4EB176"/>
<stop offset="1" stop-color="#527280"/>
</linearGradient>
</defs>
</svg>
