<svg width="67" height="62" viewBox="0 0 67 62" fill="none" xmlns="http://www.w3.org/2000/svg">
<path d="M24.8994 4.19596C21.0899 6.51475 17.5565 8.77832 17.0596 9.27521C16.2315 9.99293 16.0659 11.1523 16.0659 17.391V24.6786L8.17096 29.8682L0.331255 35.0579L0.165628 43.0632L0 51.1238L1.54586 52.504C4.63757 55.3749 15.569 62 17.1701 62C18.219 62 21.1451 60.5094 25.5067 57.6937C29.2609 55.2645 32.6839 53.3322 33.1807 53.3322C33.6776 53.3322 37.1006 55.2645 40.8548 57.6937C45.2163 60.5094 48.1424 62 49.1914 62C50.7373 62 64.2083 53.7738 65.5885 51.9519C66.0854 51.3446 66.251 48.7498 66.1406 43.0632L66.0302 35.0579L58.1905 29.8682L50.2956 24.6786V17.3358V9.99293L48.5289 8.6679C44.5538 5.74182 34.3401 5.91017e-05 33.1255 5.91017e-05C32.4078 0.0552683 28.7088 1.93238 24.8994 4.19596ZM40.1923 6.56995L46.5414 10.3794L39.861 14.3545L33.1807 18.3847L26.5004 14.3545L19.8201 10.3794L26.114 6.56995C29.5369 4.52721 32.6839 2.81573 33.0703 2.76052C33.512 2.76052 36.7141 4.472 40.1923 6.56995ZM25.5619 17.0045L31.8005 20.7587L31.9661 26.9422C32.0213 30.3651 31.9661 33.1256 31.8005 33.1256C31.6901 33.1256 28.6536 31.2485 25.1754 28.9849L18.8263 24.8994V19.0472C18.8263 15.8451 18.9368 13.2503 19.1024 13.2503C19.2128 13.2503 22.1389 14.9618 25.5619 17.0045ZM47.5351 19.0472V24.8994L41.1861 28.9849C37.7079 31.2485 34.6714 33.1256 34.561 33.1256C34.3953 33.1256 34.3401 30.3099 34.3953 26.9422L34.561 20.7035L40.634 17.0045C44.0017 14.9618 46.8726 13.2503 47.1487 13.2503C47.3695 13.2503 47.5351 15.8451 47.5351 19.0472ZM23.74 31.5245C27.1077 33.7329 29.8682 35.6652 29.8682 35.886C29.8682 36.3277 17.8878 43.6153 17.1701 43.6153C16.2315 43.6153 4.74799 36.4381 4.74799 35.886C4.74799 35.2235 15.9555 27.7151 17.0044 27.6599C17.3357 27.6047 20.3722 29.3714 23.74 31.5245ZM55.8165 31.5245C59.1291 33.6777 61.8895 35.6652 61.8895 35.886C61.8895 36.3277 49.9643 43.6153 49.1914 43.6153C48.3081 43.6153 36.7693 36.4381 36.7693 35.886C36.7693 35.2235 47.9768 27.7151 49.0258 27.6599C49.4122 27.6047 52.4487 29.3714 55.8165 31.5245ZM9.55119 42.4007L15.7898 46.155L15.9555 52.3384C16.0107 55.7614 15.9003 58.5218 15.6794 58.5218C15.5138 58.5218 12.4773 56.6999 9.05431 54.5468L2.81567 50.5165V44.6091C2.81567 41.2965 2.92609 38.6465 3.09172 38.6465C3.20213 38.6465 6.12822 40.358 9.55119 42.4007ZM31.5245 44.6091V50.6269L25.8931 54.2155C22.7462 56.203 19.8753 57.9697 19.5441 58.1906C18.992 58.5218 18.8263 57.1968 18.8263 52.3384V46.0997L25.065 42.3455C28.4327 40.3028 31.3036 38.6465 31.414 38.6465C31.4692 38.6465 31.5245 41.3518 31.5245 44.6091ZM43.284 43.5049L47.5351 46.0997V52.3384C47.5351 57.1968 47.3695 58.5218 46.8726 58.1906C46.4862 57.9697 43.6153 56.203 40.5236 54.2155L34.837 50.6269V44.5539V38.5361L36.935 39.7507C38.0391 40.4132 40.91 42.1247 43.284 43.5049ZM63.5458 44.6091V50.5165L57.3072 54.5468C53.8842 56.6999 50.8477 58.5218 50.6821 58.5218C50.4612 58.5218 50.3508 55.7614 50.406 52.3384L50.5716 46.155L56.6446 42.4559C60.0124 40.4132 62.8833 38.7017 63.1593 38.7017C63.3802 38.6465 63.5458 41.2965 63.5458 44.6091Z" fill="#1B1B1B"/>
</svg>
