<svg width="66" height="64" viewBox="0 0 66 64" fill="none" xmlns="http://www.w3.org/2000/svg">
<path d="M29.2713 0.267646C21.7936 1.53226 15.7455 6.9206 13.3812 14.3433C12.6664 16.5426 12.2266 17.2574 11.4018 17.2574C9.20248 17.2574 6.01346 18.577 3.92411 20.3915C-0.419556 24.0753 -1.29928 31.1132 1.9997 35.2919C4.08906 37.8211 8.10282 40.0754 9.20248 39.1957C10.3571 38.206 10.0822 37.7111 7.77292 36.5565C4.30899 34.742 2.76946 32.4877 2.76946 29.1338C2.76946 23.9654 6.12343 20.5014 11.5118 20.1165L14.8108 19.8966L15.4156 17.0925C16.7352 10.9344 20.0341 6.81063 25.7524 4.22643C28.1167 3.12677 29.6562 2.79687 32.9552 2.79687C39.3332 2.74188 43.9518 5.10616 47.8556 10.3845C49.78 12.9687 50.2199 13.2986 52.4742 13.5186C58.1924 14.1784 62.701 18.7969 63.1409 24.4602C63.5258 29.4637 62.1512 32.0479 57.2027 35.8967C56.0481 36.7764 55.9931 37.0513 56.5979 37.8211C57.2027 38.5359 57.4776 38.5909 58.7972 37.9311C62.9759 35.6767 66 30.5083 66 25.5049C66 18.467 60.4467 11.9241 53.5188 10.8794C51.6494 10.6045 50.9346 10.1646 49.67 8.35016C45.5463 2.30202 37.0789 -0.996964 29.2713 0.267646Z" fill="#002E5B"/>
<path d="M31.9105 13.9587C31.9105 17.5876 31.7455 20.5567 31.5256 20.5567C31.3057 20.5567 29.9861 19.402 28.5565 18.0274C26.0273 15.5532 24.7627 15.2783 24.7627 17.1477C24.7627 17.6975 26.6321 19.9518 28.8864 22.2062L33.0102 26.2749L37.1339 22.2062C39.3882 19.9518 41.2576 17.6975 41.2576 17.1477C41.2576 15.2783 39.993 15.5532 37.4638 18.0274C36.0342 19.402 34.7146 20.5567 34.4947 20.5567C34.2748 20.5567 34.1098 17.5876 34.1098 13.9587C34.1098 7.7456 34.0548 7.36072 33.0102 7.36072C31.9655 7.36072 31.9105 7.7456 31.9105 13.9587Z" fill="#002E5B"/>
<path d="M21.7938 29.9587L20.3643 31.0583V45.6288C20.3643 54.0962 20.5842 60.6392 20.9141 61.244C21.7938 62.9485 24.598 63.4434 33.1203 63.4434C42.9623 63.4434 44.7218 62.9485 45.6565 59.7595C46.0963 58.3849 46.2063 53.2715 46.0963 44.5842L45.9314 31.4432L44.3919 30.1236C42.9073 28.859 42.6324 28.804 33.0653 28.804C23.9931 28.804 23.1684 28.914 21.7938 29.9587ZM43.1273 32.4329C43.2922 32.9278 43.4572 39.0309 43.4572 46.0687C43.4572 55.4158 43.2922 59.0997 42.7424 59.7595C42.1376 60.6392 41.0379 60.6942 32.7355 60.5842L23.3883 60.4193L23.1134 46.5086C22.9485 38.8659 22.9485 32.3779 23.0034 32.103C23.1134 31.7731 27.0172 31.5532 33.0104 31.5532C41.4228 31.5532 42.8523 31.6631 43.1273 32.4329Z" fill="#002E5B"/>
<path d="M31.6903 53.3268C31.1954 53.7667 30.8105 54.3715 30.8105 54.6464C30.8105 55.2512 32.4051 56.8457 33.0099 56.8457C33.6147 56.8457 35.2092 55.2512 35.2092 54.6464C35.2092 54.0416 33.6147 52.4471 33.0099 52.4471C32.735 52.4471 32.1301 52.8319 31.6903 53.3268ZM33.5597 54.6464C33.5597 54.9213 33.3398 55.1962 33.0099 55.1962C32.735 55.1962 32.46 54.9213 32.46 54.6464C32.46 54.3165 32.735 54.0965 33.0099 54.0965C33.3398 54.0965 33.5597 54.3165 33.5597 54.6464Z" fill="#002E5B"/>
</svg>
