<svg width="49" height="65" viewBox="0 0 49 65" fill="none" xmlns="http://www.w3.org/2000/svg">
<path d="M19.95 0.440726C15.2709 1.77761 11.3117 5.58257 9.82055 10.1588C9.25495 11.8556 8.89502 12.1641 6.47835 12.8326C-1.13157 15.0436 -2.3142 24.7616 4.57587 28.1553C6.8897 29.2865 7.35247 29.3379 23.395 29.3379C39.3862 29.3379 39.9003 29.2865 41.9571 28.2067C47.8702 25.0702 49.8241 19.4141 46.9961 13.7581C45.505 10.7758 43.0883 8.82193 39.8489 7.94782C38.512 7.58789 36.9695 6.5081 35.3755 4.81129C33.9872 3.423 31.8791 1.82902 30.645 1.26342C27.6628 -0.0220399 22.9837 -0.381969 19.95 0.440726ZM30.5936 4.14285C31.9305 4.91413 33.7301 6.55952 34.6042 7.79356C35.7869 9.49037 36.5067 10.056 37.5351 10.056C39.9003 10.056 43.3454 12.2155 44.5794 14.4265C47.0475 18.7971 45.6592 23.2705 41.083 25.6358L38.3578 27.0755L22.6237 26.9212C5.60424 26.767 4.73013 26.6127 3.29041 23.8875C2.15921 21.6251 2.36488 19.1056 3.90743 17.306C5.29573 15.6606 8.02091 14.5808 9.71772 15.0436C10.8489 15.3521 11.5174 14.3237 12.0315 11.5471C12.6486 7.99924 16.4021 4.14285 20.4642 2.80597C23.0865 1.98328 28.0227 2.6003 30.5936 4.14285Z" fill="#002E5B"/>
<path d="M2.41667 35.8167C1.9539 36.0738 1.18262 36.9993 0.771277 37.822C-0.257092 39.7759 -0.257092 46.1003 0.771277 48.1057C1.43972 49.3911 1.43972 49.7511 0.771277 51.3964C-0.154255 53.6074 -0.205674 59.7262 0.66844 61.4745C1.02837 62.1943 2.10816 63.1713 3.08511 63.634C4.67908 64.4567 6.83865 64.5596 24.1667 64.5596C41.4947 64.5596 43.6543 64.4567 45.2482 63.634C46.2252 63.1713 47.305 62.1943 47.6649 61.4745C48.539 59.7262 48.4876 53.6074 47.5621 51.3964C46.8936 49.7511 46.8936 49.3911 47.5621 48.1057C48.5904 46.1003 48.5904 39.7759 47.5621 37.822C47.1507 36.9993 46.328 36.0738 45.8138 35.7652C44.4255 35.0454 3.70213 35.0968 2.41667 35.8167ZM44.6826 38.1819C45.711 39.0046 45.8138 39.5188 45.6596 43.2209C45.5053 46.9745 45.4025 47.3344 44.2199 47.9514C43.2429 48.4656 38.2553 48.6199 24.1667 48.6199C10.078 48.6199 5.09043 48.4656 4.11348 47.9514C2.93085 47.3344 2.82801 46.9745 2.67376 43.2209C2.41667 36.8964 0.925532 37.3078 24.1667 37.3078C41.906 37.3078 43.7057 37.4106 44.6826 38.1819ZM45.1454 51.8078C45.5053 52.1677 45.7624 53.9674 45.7624 56.2812C45.7624 62.4514 47.4592 61.9886 24.2695 61.9886C0.925532 61.9886 2.57092 62.4 2.57092 56.3326C2.57092 53.9674 2.82801 52.1677 3.18794 51.8078C4.06206 50.9337 44.2713 50.9337 45.1454 51.8078Z" fill="#002E5B"/>
</svg>
