<svg width="52" height="56" viewBox="0 0 52 56" fill="none" xmlns="http://www.w3.org/2000/svg">
<path d="M18.5586 0.402595C11.5823 1.20754 3.39868 3.75655 1.34158 5.76892L0 7.06579L0.0447194 18.827C0.0447194 31.8851 0.313036 33.6291 3.13036 39.4874C6.35016 46.1058 11.8954 51.2486 19.1846 54.2895C24.6404 56.5702 26.7869 56.5702 32.2427 54.2895C39.532 51.2486 45.0772 46.1058 48.297 39.4874C51.1143 33.6291 51.3826 31.8851 51.3826 18.827L51.4273 7.06579L50.0857 5.81364C47.8498 3.62239 39.9344 1.20754 32.3321 0.402595C27.413 -0.134038 23.433 -0.134038 18.5586 0.402595ZM32.6452 2.63856C37.4301 3.1752 40.8735 3.98015 45.3008 5.59005C47.8945 6.52915 48.6994 7.02107 49.0572 7.91546C49.7727 9.79367 49.2361 30.454 48.3417 33.4502C46.5976 39.5321 42.6176 45.3009 37.6985 48.789C34.4787 51.1144 27.7708 54.0212 25.7137 54.0212C23.8354 54.0212 17.217 51.2486 14.0866 49.102C9.16748 45.7481 4.8297 39.5768 3.08564 33.4502C2.19125 30.454 1.65462 9.79367 2.37013 7.91546C2.72788 7.02107 3.53283 6.52915 6.12656 5.59005C14.7127 2.50441 23.5224 1.52058 32.6452 2.63856Z" fill="#002E5B"/>
<path d="M23.7009 11.4036C20.9283 12.1638 19.229 14.4892 18.7371 18.1562C18.4687 20.2133 18.3346 20.4816 17.3508 20.4816C16.7694 20.4816 15.7856 20.9735 15.2042 21.5996C14.0862 22.6728 14.0862 22.7623 14.0862 30.9907C14.0862 42.3047 13.1919 41.4997 25.7133 41.4997C38.2347 41.4997 37.3403 42.3047 37.3403 30.9907C37.3403 22.7623 37.3403 22.6728 36.2223 21.5996C35.641 20.9735 34.6572 20.4816 34.0758 20.4816C33.092 20.4816 32.9578 20.2133 32.6895 18.1562C32.287 15.2941 31.4821 13.6842 29.7828 12.4768C28.4412 11.493 25.3108 10.9564 23.7009 11.4036ZM27.6809 13.8631C29.2461 14.5339 30.1405 16.0544 30.4983 18.4692L30.7666 20.4816H25.758C20.9283 20.4816 20.7942 20.4369 20.7942 19.453C20.7942 14.9811 24.1481 12.2532 27.6809 13.8631ZM34.8808 30.9907V39.0401H25.7133H16.5458L16.4116 31.4378C16.3669 27.2789 16.4116 23.612 16.5458 23.2989C16.68 22.807 18.6923 22.7176 25.8027 22.807L34.8808 22.9412V30.9907Z" fill="#002E5B"/>
<path d="M22.9416 28.5311C21.7789 29.7386 21.6001 30.141 21.8237 31.5273C22.3156 34.5683 24.8646 35.9098 27.503 34.5683C30.0073 33.2714 30.4098 30.4988 28.4421 28.4864C26.6533 26.6976 24.7751 26.7424 22.9416 28.5311ZM27.2794 30.946C27.2794 33.2714 24.4621 33.7186 24.0149 31.4826C23.7019 30.0069 24.2832 29.3808 25.8037 29.515C27.1005 29.6491 27.2794 29.828 27.2794 30.946Z" fill="#002E5B"/>
</svg>
